<svg width="34" height="36" viewBox="0 0 34 36" fill="none" xmlns="http://www.w3.org/2000/svg"><g clip-path="url(#a)"><path d="M4.17 7.46C6.34 4.12 9.53 1.1 13.22.33c3.68-.78 7.86.7 11.69 2.9 3.83 2.18 7.27 5.1 8.03 8.56.74 3.47-1.25 7.52-2.96 11.42-1.73 3.9-3.18 7.67-6.03 9.98-2.85 2.29-7.1 3.1-11.27 2.54-4.18-.55-8.27-2.48-10.43-5.64C.08 26.91-.16 22.5.32 18.49A25.17 25.17 0 0 1 4.17 7.46Z" fill="#FF8961"/></g><defs><clipPath id="a"><path fill="#fff" d="M0 0h34v36H0z"/></clipPath></defs></svg>