<svg width="173" height="213" viewBox="0 0 173 213" fill="none" xmlns="http://www.w3.org/2000/svg"><path d="M52.37 77.61c2.26-5.38 3.85-12.13 3.17-18.2-.66-6.1-3.6-11.54-7.06-16-3.46-4.48-7.43-7.9-10.91-6.9-3.48 1.03-6.46 6.57-9.4 11.6-2.94 5.05-5.87 9.61-6.93 15.38-1.03 5.75-.19 12.74 1.9 18.73 2.08 6.03 5.4 11.05 9.12 12.38 3.74 1.32 7.9-1.05 11.41-4.28a35.2 35.2 0 0 0 8.7-12.7Z" fill="#9FD8E5"/><path d="M57.98 175.62c3.52-8.42 6-18.97 4.93-28.48-1.05-9.54-5.64-18.05-11.04-25.06-5.4-7-11.61-12.38-17.05-10.83-5.41 1.61-10.06 10.27-14.65 18.13-4.58 7.9-9.15 15.02-10.79 24.04-1.6 9-.28 19.94 2.98 29.31 3.25 9.44 8.44 17.3 14.25 19.4 5.84 2.07 12.32-1.62 17.8-6.66 5.52-5.05 10.06-11.44 13.57-19.85ZM90.44 68.88c1.13-2.69 1.92-6.06 1.58-9.1-.33-3.05-1.8-5.76-3.53-8-1.73-2.23-3.72-3.95-5.46-3.45-1.73.52-3.22 3.29-4.7 5.8-1.47 2.53-2.93 4.81-3.46 7.7-.52 2.87-.1 6.37.95 9.36 1.04 3.01 2.7 5.52 4.56 6.19 1.87.66 3.95-.53 5.7-2.14a17.6 17.6 0 0 0 4.36-6.36ZM112.51 193.7c1.82-4.34 3.1-9.78 2.56-14.68-.54-4.91-2.9-9.3-5.7-12.9-2.78-3.6-5.99-6.36-8.8-5.56-2.8.84-5.2 5.3-7.57 9.35-2.37 4.08-4.73 7.76-5.58 12.4-.83 4.64-.15 10.28 1.53 15.1 1.67 4.86 4.35 8.9 7.35 9.98 3.02 1.07 6.36-.85 9.2-3.44 2.85-2.61 5.2-5.91 7.01-10.25Z" fill="#9093D1"/><path d="M101.14 133.22c2.26-5.38 3.85-12.12 3.17-18.2-.67-6.1-3.6-11.53-7.06-16-3.46-4.48-7.44-7.9-10.92-6.9-3.47 1.03-6.45 6.57-9.4 11.6-2.94 5.06-5.87 9.61-6.92 15.38-1.04 5.75-.2 12.75 1.9 18.73 2.07 6.03 5.4 11.05 9.11 12.38 3.75 1.32 7.9-1.05 11.42-4.27a35.21 35.21 0 0 0 8.7-12.72Z" fill="#F7859C"/><path d="M159.42 76.28c3.52-8.42 6-18.96 4.92-28.48-1.04-9.53-5.64-18.05-11.04-25.05-5.4-7-11.6-12.38-17.04-10.83-5.42 1.6-10.06 10.27-14.66 18.12-4.58 7.9-9.14 15.03-10.78 24.05-1.61 9-.29 19.94 2.98 29.3 3.24 9.45 8.43 17.31 14.24 19.4 5.85 2.08 12.32-1.62 17.8-6.65 5.53-5.05 10.06-11.44 13.58-19.86Z" fill="#FFDBB4"/></svg>