<svg width="1440" height="100" viewBox="0 0 1440 100" fill="none" xmlns="http://www.w3.org/2000/svg"><g filter="url(#a)"><path d="m-1191.18-91 74.06 17.92c74.07 17.25 222.2 54.1 370.33 98.16 148.14 44.72 296.27 98.32 444.4 98.32s296.27-53.6 444.4-71.52c148.13-17.26 296.26-.5 444.4 17.92 148.13 18.42 296.26 35.17 444.4 8.88 148.13-27.3 296.26-97.66 444.39-71.36 148.14 27.3 296.27 151.25 444.4 178.56 148.13 26.3 296.27-44.06 370.33-80.4L2364 69.8V445H-1191.18V-91Z" fill="#D3D4ED"/></g><defs><filter id="a" x="-1195.18" y="-91" width="3563.18" height="544" filterUnits="userSpaceOnUse" color-interpolation-filters="sRGB"><feFlood flood-opacity="0" result="BackgroundImageFix"/><feColorMatrix in="SourceAlpha" values="0 0 0 0 0 0 0 0 0 0 0 0 0 0 0 0 0 0 127 0" result="hardAlpha"/><feOffset dy="4"/><feGaussianBlur stdDeviation="2"/><feComposite in2="hardAlpha" operator="out"/><feColorMatrix values="0 0 0 0 0 0 0 0 0 0 0 0 0 0 0 0 0 0 0.25 0"/><feBlend in2="BackgroundImageFix" result="effect1_dropShadow_1_932"/><feBlend in="SourceGraphic" in2="effect1_dropShadow_1_932" result="shape"/></filter></defs></svg>